<svg xmlns="http://www.w3.org/2000/svg" enable-background="new 0 0 24 24" viewBox="0 0 24 24">
    <path fill="#fff" d="M.65 23.35c-.063 0-.128-.012-.189-.037-.188-.077-.311-.26-.311-.463v-8.625c0-.127.048-.249.135-.342l12.85-13.725C13.229.058 13.361 0 13.5 0h9.143c.201 0 .384.121.461.307.078.186.037.4-.104.544L1.007 23.2C.911 23.298.782 23.35.65 23.35zM1.15 14.422v7.207L21.449 1h-7.732L1.15 14.422zM.575 11.88c-.062 0-.126-.012-.187-.036-.189-.076-.313-.26-.313-.464V.599c0-.276.224-.5.5-.5h10.35c.2 0 .382.119.46.304s.039.398-.1.543L.936 11.727C.84 11.826.709 11.88.575 11.88zM1.075 1.099v9.038l8.677-9.038H1.075zM22.912 23.949H3.334c-.201 0-.383-.121-.461-.307s-.037-.4.104-.544l9.746-9.919c.094-.096.222-.149.355-.149h.001c.134 0 .261.054.355.148l9.832 9.919c.142.143.184.357.106.544C23.296 23.828 23.114 23.949 22.912 23.949zM4.526 22.949h17.187l-8.631-8.707L4.526 22.949z"/>
</svg>